# xmcd
#
# Track frame offsets:
#   150
#   20032
#   41207
#   57827
#   80415
#   103510
#   125077
#   145128
#   158770
#   191134
#   219762
#
# Disc length: 3181 seconds
#
# Revision: 0
# Processed by: cddbd v1.4PL0 Copyright (c) Steve Scherf et al.
# Submitted via: uFREEDB 1.6.0
#
DISCID=990c6b0b
DTITLE=Eric Clapton and BB King - Riding With The King
DYEAR=1900
DGENRE=Blues
TTITLE0=Riding With The King
TTITLE1=Ten Long Years
TTITLE2=Key To The Highway
TTITLE3=Marry You
TTITLE4=Help Poor Me
TTITLE5=Help The Poor
TTITLE6=I Wanna Be
TTITLE7=Worried Life Blues
TTITLE8=When My Heart Beats Like A Hammer
TTITLE9=Hold On I'm Coming
TTITLE10=Come Rain or Shine
EXTD=
EXTT0=
EXTT1=
EXTT2=
EXTT3=
EXTT4=
EXTT5=
EXTT6=
EXTT7=
EXTT8=
EXTT9=
EXTT10=
PLAYORDER=
